<svg width="159" height="40" viewBox="0 0 159 40" fill="none" xmlns="http://www.w3.org/2000/svg">
<path d="M62.2139 22.4366C62.2139 21.9991 62.0589 21.6619 61.749 21.4249C61.4437 21.1879 60.89 20.9487 60.0879 20.7072C59.2858 20.4656 58.6478 20.1967 58.1738 19.9005C57.2669 19.3309 56.8135 18.588 56.8135 17.672C56.8135 16.8699 57.1393 16.2091 57.791 15.6896C58.4473 15.17 59.2972 14.9103 60.3408 14.9103C61.0335 14.9103 61.651 15.0379 62.1934 15.2931C62.7357 15.5483 63.1618 15.9129 63.4717 16.3868C63.7816 16.8562 63.9365 17.3781 63.9365 17.9523H62.2139C62.2139 17.4327 62.0498 17.0271 61.7217 16.7355C61.3981 16.4392 60.9333 16.2911 60.3271 16.2911C59.762 16.2911 59.3223 16.4119 59.0078 16.6534C58.6979 16.895 58.543 17.2322 58.543 17.6652C58.543 18.0297 58.7116 18.3351 59.0488 18.5812C59.3861 18.8227 59.9421 19.0597 60.7168 19.2921C61.4915 19.52 62.1136 19.782 62.583 20.0782C63.0524 20.3699 63.3965 20.7072 63.6152 21.09C63.834 21.4682 63.9434 21.9126 63.9434 22.423C63.9434 23.2524 63.6243 23.9132 62.9863 24.4054C62.3529 24.893 61.4915 25.1368 60.4023 25.1368C59.6823 25.1368 59.0192 25.0047 58.4131 24.7404C57.8115 24.4715 57.3421 24.1023 57.0049 23.6329C56.6722 23.1635 56.5059 22.6167 56.5059 21.9923H58.2354C58.2354 22.5574 58.4222 22.9949 58.7959 23.3048C59.1696 23.6147 59.7051 23.7697 60.4023 23.7697C61.0039 23.7697 61.4551 23.6489 61.7559 23.4073C62.0612 23.1613 62.2139 22.8377 62.2139 22.4366ZM69.7197 25.0001C69.6468 24.8588 69.583 24.6287 69.5283 24.3097C68.9997 24.8611 68.3525 25.1368 67.5869 25.1368C66.8441 25.1368 66.238 24.9249 65.7686 24.5011C65.2992 24.0773 65.0645 23.5532 65.0645 22.9288C65.0645 22.1404 65.3561 21.5366 65.9395 21.1173C66.5273 20.6935 67.3659 20.4816 68.4551 20.4816H69.4736V19.9962C69.4736 19.6134 69.3665 19.3081 69.1523 19.0802C68.9382 18.8478 68.6123 18.7316 68.1748 18.7316C67.7965 18.7316 67.4867 18.8273 67.2451 19.0187C67.0036 19.2055 66.8828 19.4448 66.8828 19.7365H65.2217C65.2217 19.3309 65.3561 18.9526 65.625 18.6017C65.8939 18.2462 66.2585 17.9682 66.7188 17.7677C67.1836 17.5672 67.7008 17.4669 68.2705 17.4669C69.1364 17.4669 69.8268 17.6857 70.3418 18.1232C70.8568 18.5561 71.1211 19.1668 71.1348 19.9552V23.2911C71.1348 23.9565 71.2282 24.4874 71.415 24.8839V25.0001H69.7197ZM67.8945 23.8038C68.2227 23.8038 68.5303 23.7241 68.8174 23.5646C69.109 23.4051 69.3278 23.1909 69.4736 22.922V21.5275H68.5781C67.9629 21.5275 67.5003 21.6346 67.1904 21.8488C66.8805 22.0629 66.7256 22.366 66.7256 22.7579C66.7256 23.0769 66.8304 23.3322 67.04 23.5236C67.2542 23.7104 67.5391 23.8038 67.8945 23.8038ZM74.6416 25.0001H72.9805V14.5001H74.6416V25.0001ZM80.876 25.0001C80.8031 24.8588 80.7393 24.6287 80.6846 24.3097C80.1559 24.8611 79.5088 25.1368 78.7432 25.1368C78.0003 25.1368 77.3942 24.9249 76.9248 24.5011C76.4554 24.0773 76.2207 23.5532 76.2207 22.9288C76.2207 22.1404 76.5124 21.5366 77.0957 21.1173C77.6836 20.6935 78.5221 20.4816 79.6113 20.4816H80.6299V19.9962C80.6299 19.6134 80.5228 19.3081 80.3086 19.0802C80.0944 18.8478 79.7686 18.7316 79.3311 18.7316C78.9528 18.7316 78.6429 18.8273 78.4014 19.0187C78.1598 19.2055 78.0391 19.4448 78.0391 19.7365H76.3779C76.3779 19.3309 76.5124 18.9526 76.7812 18.6017C77.0501 18.2462 77.4147 17.9682 77.875 17.7677C78.3398 17.5672 78.8571 17.4669 79.4268 17.4669C80.2926 17.4669 80.9831 17.6857 81.498 18.1232C82.013 18.5561 82.2773 19.1668 82.291 19.9552V23.2911C82.291 23.9565 82.3844 24.4874 82.5713 24.8839V25.0001H80.876ZM79.0508 23.8038C79.3789 23.8038 79.6865 23.7241 79.9736 23.5646C80.2653 23.4051 80.484 23.1909 80.6299 22.922V21.5275H79.7344C79.1191 21.5275 78.6566 21.6346 78.3467 21.8488C78.0368 22.0629 77.8818 22.366 77.8818 22.7579C77.8818 23.0769 77.9867 23.3322 78.1963 23.5236C78.4105 23.7104 78.6953 23.8038 79.0508 23.8038ZM91.5811 22.1974H90.0498L89.5303 25.0001H88.3818L88.9014 22.1974H87.3223V21.1173H89.1064L89.5029 18.9777H87.8418V17.8907H89.708L90.2412 15.047H91.3828L90.8496 17.8907H92.3877L92.9209 15.047H94.0625L93.5293 17.8907H94.9512V18.9777H93.3242L92.9277 21.1173H94.4385V22.1974H92.7227L92.2031 25.0001H91.0615L91.5811 22.1974ZM90.2549 21.1173H91.7861L92.1826 18.9777H90.6514L90.2549 21.1173ZM97.877 19.2648H98.8887C99.3991 19.2602 99.8024 19.1281 100.099 18.8683C100.399 18.6085 100.55 18.2325 100.55 17.7404C100.55 17.2664 100.424 16.8995 100.174 16.6398C99.9277 16.3754 99.5495 16.2433 99.0391 16.2433C98.5924 16.2433 98.2256 16.3732 97.9385 16.6329C97.6514 16.8881 97.5078 17.2231 97.5078 17.6378H95.8467C95.8467 17.1274 95.9811 16.6626 96.25 16.2433C96.5234 15.824 96.9017 15.4982 97.3848 15.2657C97.8724 15.0288 98.417 14.9103 99.0186 14.9103C100.012 14.9103 100.791 15.1609 101.356 15.6622C101.926 16.159 102.211 16.8517 102.211 17.7404C102.211 18.187 102.067 18.6085 101.78 19.005C101.498 19.3969 101.131 19.6932 100.68 19.8937C101.227 20.0805 101.641 20.3745 101.924 20.7755C102.211 21.1766 102.354 21.6551 102.354 22.2111C102.354 23.1043 102.047 23.8152 101.432 24.3439C100.821 24.8725 100.017 25.1368 99.0186 25.1368C98.0615 25.1368 97.2777 24.8816 96.667 24.3712C96.0563 23.8608 95.751 23.1818 95.751 22.3341H97.4121C97.4121 22.7716 97.5579 23.1271 97.8496 23.4005C98.1458 23.674 98.5423 23.8107 99.0391 23.8107C99.554 23.8107 99.9596 23.674 100.256 23.4005C100.552 23.1271 100.7 22.7306 100.7 22.2111C100.7 21.687 100.545 21.2837 100.235 21.0011C99.9255 20.7185 99.4652 20.5773 98.8545 20.5773H97.877V19.2648ZM110.605 25.0001H103.913V23.8585L107.229 20.2423C107.707 19.7091 108.047 19.2648 108.247 18.9093C108.452 18.5493 108.555 18.1892 108.555 17.8292C108.555 17.3553 108.42 16.9725 108.151 16.6808C107.887 16.3891 107.529 16.2433 107.078 16.2433C106.54 16.2433 106.123 16.4073 105.827 16.7355C105.531 17.0636 105.383 17.5125 105.383 18.0822H103.722C103.722 17.476 103.858 16.9314 104.132 16.4484C104.41 15.9607 104.804 15.5825 105.314 15.3136C105.829 15.0447 106.422 14.9103 107.092 14.9103C108.058 14.9103 108.819 15.1541 109.375 15.6417C109.936 16.1248 110.216 16.7947 110.216 17.6515C110.216 18.1482 110.075 18.67 109.792 19.2169C109.514 19.7592 109.056 20.3767 108.418 21.0695L105.984 23.674H110.605V25.0001ZM113.791 19.2648H114.803C115.313 19.2602 115.716 19.1281 116.013 18.8683C116.313 18.6085 116.464 18.2325 116.464 17.7404C116.464 17.2664 116.339 16.8995 116.088 16.6398C115.842 16.3754 115.464 16.2433 114.953 16.2433C114.507 16.2433 114.14 16.3732 113.853 16.6329C113.565 16.8881 113.422 17.2231 113.422 17.6378H111.761C111.761 17.1274 111.895 16.6626 112.164 16.2433C112.438 15.824 112.816 15.4982 113.299 15.2657C113.786 15.0288 114.331 14.9103 114.933 14.9103C115.926 14.9103 116.705 15.1609 117.271 15.6622C117.84 16.159 118.125 16.8517 118.125 17.7404C118.125 18.187 117.981 18.6085 117.694 19.005C117.412 19.3969 117.045 19.6932 116.594 19.8937C117.141 20.0805 117.555 20.3745 117.838 20.7755C118.125 21.1766 118.269 21.6551 118.269 22.2111C118.269 23.1043 117.961 23.8152 117.346 24.3439C116.735 24.8725 115.931 25.1368 114.933 25.1368C113.976 25.1368 113.192 24.8816 112.581 24.3712C111.97 23.8608 111.665 23.1818 111.665 22.3341H113.326C113.326 22.7716 113.472 23.1271 113.764 23.4005C114.06 23.674 114.456 23.8107 114.953 23.8107C115.468 23.8107 115.874 23.674 116.17 23.4005C116.466 23.1271 116.614 22.7306 116.614 22.2111C116.614 21.687 116.459 21.2837 116.149 21.0011C115.84 20.7185 115.379 20.5773 114.769 20.5773H113.791V19.2648ZM126.52 25.0001H119.827V23.8585L123.143 20.2423C123.621 19.7091 123.961 19.2648 124.161 18.9093C124.366 18.5493 124.469 18.1892 124.469 17.8292C124.469 17.3553 124.334 16.9725 124.065 16.6808C123.801 16.3891 123.443 16.2433 122.992 16.2433C122.454 16.2433 122.037 16.4073 121.741 16.7355C121.445 17.0636 121.297 17.5125 121.297 18.0822H119.636C119.636 17.476 119.772 16.9314 120.046 16.4484C120.324 15.9607 120.718 15.5825 121.229 15.3136C121.743 15.0447 122.336 14.9103 123.006 14.9103C123.972 14.9103 124.733 15.1541 125.289 15.6417C125.85 16.1248 126.13 16.7947 126.13 17.6515C126.13 18.1482 125.989 18.67 125.706 19.2169C125.428 19.7592 124.97 20.3767 124.332 21.0695L121.898 23.674H126.52V25.0001ZM133.403 21.4523H134.641V22.7853H133.403V25.0001H131.742V22.7853H127.442L127.395 21.7736L131.688 15.047H133.403V21.4523ZM129.138 21.4523H131.742V17.296L131.619 17.5148L129.138 21.4523ZM137.662 19.2648H138.674C139.184 19.2602 139.588 19.1281 139.884 18.8683C140.185 18.6085 140.335 18.2325 140.335 17.7404C140.335 17.2664 140.21 16.8995 139.959 16.6398C139.713 16.3754 139.335 16.2433 138.824 16.2433C138.378 16.2433 138.011 16.3732 137.724 16.6329C137.437 16.8881 137.293 17.2231 137.293 17.6378H135.632C135.632 17.1274 135.766 16.6626 136.035 16.2433C136.309 15.824 136.687 15.4982 137.17 15.2657C137.658 15.0288 138.202 14.9103 138.804 14.9103C139.797 14.9103 140.576 15.1609 141.142 15.6622C141.711 16.159 141.996 16.8517 141.996 17.7404C141.996 18.187 141.853 18.6085 141.565 19.005C141.283 19.3969 140.916 19.6932 140.465 19.8937C141.012 20.0805 141.426 20.3745 141.709 20.7755C141.996 21.1766 142.14 21.6551 142.14 22.2111C142.14 23.1043 141.832 23.8152 141.217 24.3439C140.606 24.8725 139.802 25.1368 138.804 25.1368C137.847 25.1368 137.063 24.8816 136.452 24.3712C135.841 23.8608 135.536 23.1818 135.536 22.3341H137.197C137.197 22.7716 137.343 23.1271 137.635 23.4005C137.931 23.674 138.327 23.8107 138.824 23.8107C139.339 23.8107 139.745 23.674 140.041 23.4005C140.337 23.1271 140.485 22.7306 140.485 22.2111C140.485 21.687 140.33 21.2837 140.021 21.0011C139.711 20.7185 139.25 20.5773 138.64 20.5773H137.662V19.2648Z" fill="#29292E"/>
<path d="M0 8.00012C0 3.58184 3.58172 0.00012207 8 0.00012207H44V40.0001H8C3.58172 40.0001 0 36.4184 0 32.0001V8.00012Z" fill="#835AFD"/>
<g clip-path="url(#clip0)">
<path d="M28.6667 17.5001H21.1667C20.2462 17.5001 19.5 18.2463 19.5 19.1668V26.6668C19.5 27.5873 20.2462 28.3335 21.1667 28.3335H28.6667C29.5871 28.3335 30.3333 27.5873 30.3333 26.6668V19.1668C30.3333 18.2463 29.5871 17.5001 28.6667 17.5001Z" stroke="#FEFEFE" stroke-width="1.5" stroke-linecap="round" stroke-linejoin="round"/>
<path d="M16.1667 22.5001H15.3334C14.8914 22.5001 14.4675 22.3245 14.1549 22.0119C13.8423 21.6994 13.6667 21.2754 13.6667 20.8334V13.3334C13.6667 12.8914 13.8423 12.4675 14.1549 12.1549C14.4675 11.8423 14.8914 11.6667 15.3334 11.6667H22.8334C23.2754 11.6667 23.6994 11.8423 24.0119 12.1549C24.3245 12.4675 24.5001 12.8914 24.5001 13.3334V14.1667" stroke="#FEFEFE" stroke-width="1.5" stroke-linecap="round" stroke-linejoin="round"/>
</g>
<path d="M8 1.00012H151V-0.999878H8V1.00012ZM158 8.00012V32.0001H160V8.00012H158ZM151 39.0001H8V41.0001H151V39.0001ZM1 32.0001V8.00012H-1V32.0001H1ZM8 39.0001C4.13401 39.0001 1 35.8661 1 32.0001H-1C-1 36.9707 3.02944 41.0001 8 41.0001V39.0001ZM158 32.0001C158 35.8661 154.866 39.0001 151 39.0001V41.0001C155.971 41.0001 160 36.9707 160 32.0001H158ZM151 1.00012C154.866 1.00012 158 4.13413 158 8.00012H160C160 3.02956 155.971 -0.999878 151 -0.999878V1.00012ZM8 -0.999878C3.02944 -0.999878 -1 3.02956 -1 8.00012H1C1 4.13413 4.13401 1.00012 8 1.00012V-0.999878Z" fill="#835AFD"/>
<defs>
<clipPath id="clip0">
<rect width="20" height="20" fill="white" transform="translate(12 10.0001)"/>
</clipPath>
</defs>
</svg>
